<svg xmlns="http://www.w3.org/2000/svg" width="92" height="92" viewBox="0 0 92 92">
  <g id="icon_gratis" data-name="icon gratis" transform="translate(-139 -2253)">
    <circle id="Ellipse_2" data-name="Ellipse 2" cx="46" cy="46" r="46" transform="translate(139 2253)" fill="#ff3b3f"/>
    <path id="Icon_material-money-off" data-name="Icon material-money-off" d="M31.145,16.078c5.284,0,7.244,2.523,7.422,6.234h6.561A11.834,11.834,0,0,0,35.6,11V4.5H26.692v6.412a17.6,17.6,0,0,0-4.394,1.6l4.364,4.364A11.641,11.641,0,0,1,31.145,16.078ZM9.86,7.647l-3.77,3.77L16.3,21.629c0,6.175,4.631,9.529,11.607,11.607l10.42,10.42c-1.009,1.425-3.117,2.7-7.184,2.7-6.115,0-8.52-2.731-8.847-6.234H15.768c.356,6.5,5.225,10.153,10.925,11.37v6.442H35.6V51.553a14.852,14.852,0,0,0,7.273-3.325l6.59,6.59,3.77-3.77Z" transform="translate(154.91 2267.5)" fill="#e9e9e9"/>
  </g>
</svg>
