<svg xmlns="http://www.w3.org/2000/svg" width="92" height="92" viewBox="0 0 92 92">
  <g id="icon_aman" data-name="icon aman" transform="translate(-139 -2253)">
    <circle id="Ellipse_2" data-name="Ellipse 2" cx="46" cy="46" r="46" transform="translate(139 2253)" fill="#ff3b3f"/>
    <path id="Path_23" data-name="Path 23" d="M91.379,10.15l-24-9.963a2.448,2.448,0,0,0-1.878,0l-24,9.963A2.449,2.449,0,0,0,40,12.411V24.522A41,41,0,0,0,65.519,62.5a2.449,2.449,0,0,0,1.851,0A41,41,0,0,0,92.888,24.522V12.411A2.448,2.448,0,0,0,91.379,10.15ZM87.991,24.522A36.116,36.116,0,0,1,66.444,57.574,36.117,36.117,0,0,1,44.9,24.522V14.046L66.444,5.1l21.547,8.946ZM63.738,32.776,74.262,22.252a2.448,2.448,0,1,1,3.463,3.463L65.469,37.97a2.448,2.448,0,0,1-3.463,0l-6.843-6.843a2.449,2.449,0,0,1,3.463-3.463Z" transform="translate(119 2268)" fill="#e9e9e9"/>
  </g>
</svg>
