<svg xmlns="http://www.w3.org/2000/svg" width="92" height="92" viewBox="0 0 92 92">
  <g id="icon_mudah" data-name="icon mudah" transform="translate(-139 -2253)">
    <path id="Path_17" data-name="Path 17" d="M46,0A46,46,0,1,1,0,46,46,46,0,0,1,46,0Z" transform="translate(139 2253)" fill="#ff3b3f"/>
    <g id="easy" transform="translate(84.321 2266.379)">
      <g id="Group_14" data-name="Group 14" transform="translate(74.679 1.621)">
        <g id="Group_13" data-name="Group 13" transform="translate(0 0)">
          <path id="Path_17-2" data-name="Path 17" d="M213.256,3a.756.756,0,0,0,.8-.8V-.2a.756.756,0,0,0-.8-.8.756.756,0,0,0-.8.8V2.2A.756.756,0,0,0,213.256,3Z" transform="translate(-192.073 0.999)" fill="#e9e9e9" stroke="#e9e9e9" stroke-width="2"/>
          <path id="Path_18" data-name="Path 18" d="M120.243,85.935h2.4a.8.8,0,0,0,.8-.8.756.756,0,0,0-.8-.8h-2.4a.8.8,0,1,0,0,1.6Z" transform="translate(-115.339 -76.331)" fill="#e9e9e9" stroke="#e9e9e9" stroke-width="2"/>
          <path id="Path_19" data-name="Path 19" d="M272.189,85.134a.756.756,0,0,0,.8.8h2.4a.8.8,0,0,0,.8-.8.756.756,0,0,0-.8-.8h-2.4A.756.756,0,0,0,272.189,85.134Z" transform="translate(-242.025 -76.331)" fill="#e9e9e9" stroke="#e9e9e9" stroke-width="2"/>
          <path id="Path_20" data-name="Path 20" d="M255.923,27.8a.726.726,0,0,0,.56-.24l1.6-1.6a.792.792,0,0,0-1.12-1.12l-1.6,1.6a.774.774,0,0,0,0,1.12A.727.727,0,0,0,255.923,27.8Z" transform="translate(-227.86 -22.198)" fill="#e9e9e9" stroke="#e9e9e9" stroke-width="2"/>
          <path id="Path_21" data-name="Path 21" d="M146.883,27.561a.726.726,0,0,0,.56.24.864.864,0,0,0,.56-.24.774.774,0,0,0,0-1.12l-1.6-1.6a.792.792,0,0,0-1.12,1.12Z" transform="translate(-134.504 -22.199)" fill="#e9e9e9" stroke="#e9e9e9" stroke-width="2"/>
          <path id="Path_22" data-name="Path 22" d="M122.56,80.016a6.137,6.137,0,0,0-3.123.851v-.319c0-2.66-2.5-4.788-5.622-4.788a6.137,6.137,0,0,0-3.123.851v-.319c0-2.66-2.5-4.789-5.621-4.789a6.137,6.137,0,0,0-3.123.851V63.629c0-2.66-2.5-4.895-5.622-4.895s-5.622,2.235-5.622,4.895V84.7c-2.623-3.3-7.87-5-11.868-3.618-.625.213-1.124.532-1.5.638a2.721,2.721,0,0,0-1.624,2.66c-.125.638,0,.745,1.624,2.341a63.245,63.245,0,0,1,8.37,10,68.743,68.743,0,0,0,6.246,7.13v2.767c0,5,4.622,8.513,11.243,8.513h11.118c5.247,0,9.369-2.554,10.369-6.491a7.088,7.088,0,0,1,.781-2.08c.072-.084.145-.17.219-.261a10.588,10.588,0,0,0,2.5-7.342V84.8C128.182,82.144,125.683,80.016,122.56,80.016ZM114.315,113H103.2c-4.372,0-8.744-2.022-8.744-6.385v-.287c.356.321.73.632,1.124.926a1.5,1.5,0,0,0,.75.213,1.327,1.327,0,0,0,.874-.426.934.934,0,0,0-.125-1.49,19.611,19.611,0,0,1-2.249-2.128,3.29,3.29,0,0,0-.625-.745,1.065,1.065,0,0,0-.41-.275,70.207,70.207,0,0,1-5.961-6.854c-2.623-4.15-6.746-8.3-8.62-10.322-.375-.319-.75-.745-1-.958,0-.213,0-.426.5-.745l1-.426a9.028,9.028,0,0,1,9.369,3.3l1.581,2.244a.94.94,0,0,0,.168.416l1.249,2.128a1.375,1.375,0,0,0,1.124.532c.25,0,.5,0,.5-.106a.884.884,0,0,0,.5-1.383l-1-1.7v-24.9a3.055,3.055,0,0,1,3.123-2.767,2.971,2.971,0,0,1,3.123,2.767V89.593a1.265,1.265,0,0,0,2.5,0V76.079a2.976,2.976,0,0,1,3.123-2.448,2.891,2.891,0,0,1,3.123,2.66V88.529a1.265,1.265,0,0,0,2.5,0V80.548a3.163,3.163,0,0,1,6.246,0v8.087a1.265,1.265,0,0,0,2.5,0V84.8a3.163,3.163,0,0,1,6.246,0V98.851a9.382,9.382,0,0,1-1.832,6.021,1.041,1.041,0,0,0-.167.151c-.75.851-1,1.171-3.373,1.7a1.09,1.09,0,0,0-.874,1.277,1.521,1.521,0,0,0,1.249.745c.125,0,.25,0,.25.106.426-.1.807-.2,1.151-.293C121.051,111.811,117.334,113,114.315,113Z" transform="translate(-75.679 -53.132)" fill="#e9e9e9" stroke="#e9e9e9" stroke-width="2"/>
        </g>
      </g>
    </g>
  </g>
</svg>
