<svg xmlns="http://www.w3.org/2000/svg" width="92" height="92" viewBox="0 0 92 92">
  <g id="icon_bahasa" data-name="icon bahasa" transform="translate(-139 -2253)">
    <circle id="Ellipse_2" data-name="Ellipse 2" cx="46" cy="46" r="46" transform="translate(139 2253)" fill="#ff3b3f"/>
    <g id="bahasa" transform="translate(155 2269)">
      <g id="Group_16" data-name="Group 16" transform="translate(14.264 16.245)">
        <g id="Group_15" data-name="Group 15">
          <path id="Path_25" data-name="Path 25" d="M122.477,137h-.761l-1.423,7.114H123.9Z" transform="translate(-120.293 -137)" fill="#fff"/>
        </g>
      </g>
      <g id="Group_18" data-name="Group 18" transform="translate(45.221 30.474)">
        <g id="Group_17" data-name="Group 17">
          <path id="Path_26" data-name="Path 26" d="M381.374,257a18.587,18.587,0,0,0,2.92,5.154A18.774,18.774,0,0,0,387.333,257Z" transform="translate(-381.374 -257)" fill="#fff"/>
        </g>
      </g>
      <g id="Group_20" data-name="Group 20" transform="translate(28.774 10.79)">
        <g id="Group_19" data-name="Group 19">
          <path id="Path_27" data-name="Path 27" d="M269.264,91H247.175l4.606,36.957a5.521,5.521,0,0,1-1.318,4.049l-7.8,8.914h26.6a5.342,5.342,0,0,0,5.336-5.336V96.454A5.444,5.444,0,0,0,269.264,91Zm0,19.683h-.475a22.569,22.569,0,0,1-4.285,7.791c1.307,1.195,2.7,2.174,4.093,3.272a1.778,1.778,0,1,1-2.223,2.776c-1.509-1.191-2.926-2.189-4.343-3.489-1.417,1.3-2.715,2.3-4.224,3.489a1.778,1.778,0,0,1-2.223-2.776c1.389-1.1,2.668-2.077,3.974-3.272a22.449,22.449,0,0,1-4.166-7.791h-.475a1.779,1.779,0,0,1,0-3.557h5.336v-1.779a1.779,1.779,0,1,1,3.557,0v1.779h5.454a1.779,1.779,0,1,1,0,3.557Z" transform="translate(-242.663 -91)" fill="#fff"/>
        </g>
      </g>
      <g id="Group_22" data-name="Group 22">
        <g id="Group_21" data-name="Group 21">
          <path id="Path_28" data-name="Path 28" d="M28.952,4.674A5.343,5.343,0,0,0,23.657,0H5.336A5.342,5.342,0,0,0,0,5.336V44.7a5.342,5.342,0,0,0,5.336,5.336H33.385c.519-.593.954-.964.972-1.739C34.361,48.106,28.976,4.867,28.952,4.674ZM21.811,34A1.778,1.778,0,0,1,19.718,32.6l-1.137-5.685H13.552L12.416,32.6a1.778,1.778,0,1,1-3.488-.7l3.557-17.786a1.78,1.78,0,0,1,1.744-1.43H17.9a1.78,1.78,0,0,1,1.744,1.43L23.206,31.9A1.779,1.779,0,0,1,21.811,34Z" fill="#fff"/>
        </g>
      </g>
      <g id="Group_24" data-name="Group 24" transform="translate(20.781 53.596)">
        <g id="Group_23" data-name="Group 23">
          <path id="Path_29" data-name="Path 29" d="M175.261,452l.305,2.44a5.379,5.379,0,0,0,3.076,4.133L184.613,452h-9.352Z" transform="translate(-175.261 -452)" fill="#fff"/>
        </g>
      </g>
    </g>
  </g>
</svg>
