<svg xmlns="http://www.w3.org/2000/svg" width="92" height="92" viewBox="0 0 92 92">
  <g id="icon_24jam" data-name="icon 24jam" transform="translate(-139 -2253)">
    <circle id="Ellipse_2" data-name="Ellipse 2" cx="46" cy="46" r="46" transform="translate(139 2253)" fill="#ff3b3f"/>
    <path id="Icon_awesome-user-clock" data-name="Icon awesome-user-clock" d="M46.392,24.1c-7.445,0-13.469,6.928-13.469,15.491S38.947,55.08,46.392,55.08s13.469-6.928,13.469-15.491S53.837,24.1,46.392,24.1Zm5.986,16.169a.99.99,0,0,1-.907,1.043H45.8a.99.99,0,0,1-.907-1.043v-8.24a.99.99,0,0,1,.907-1.043h1.179a.99.99,0,0,1,.907,1.043v5.841h3.582a.99.99,0,0,1,.907,1.044ZM29.93,39.588a21.219,21.219,0,0,1,1.7-8.337,10.9,10.9,0,0,0-2.3-.269H27.77a14.366,14.366,0,0,1-13.637,0H12.571C5.631,30.982,0,37.458,0,45.441v4.475c0,2.851,2.011,5.164,4.49,5.164H36.955A19.888,19.888,0,0,1,29.93,39.588ZM20.951,27.54c6.613,0,11.972-6.164,11.972-13.77S27.564,0,20.951,0,8.979,6.164,8.979,13.77,14.339,27.54,20.951,27.54Z" transform="translate(159.07 2271)" fill="#e9e9e9"/>
  </g>
</svg>
