<svg id="kipas_spin" data-name="kipas spin" xmlns="http://www.w3.org/2000/svg" width="377.609" height="355.451" viewBox="0 0 377.609 355.451">
  <path id="Path_1" data-name="Path 1" d="M188.851,389.454a130.107,130.107,0,0,1-70.375-20.671l15.208-15.69a108.633,108.633,0,0,0,55.167,14.981V345.957a86.634,86.634,0,0,1-39.2-9.331l14.514-14.975A67.581,67.581,0,0,1,122.1,248.519l-20.267,5.013a86.1,86.1,0,0,1,8.052-31.725l-20.017-9.4a108.27,108.27,0,0,0-10.308,46.38v.259L6.35,277.167l-1.9,5.825C-3.722,307.947-.535,335.94,13.184,359.8s36.308,40.7,61.98,46.2l5.992,1.282L102.757,385a153.052,153.052,0,0,0,117.389,23.356L215.635,386.7a131.714,131.714,0,0,1-26.784,2.748Zm0,0" transform="translate(0 -56.123)" fill="#fff"/>
  <path id="Path_2" data-name="Path 2" d="M285.363,259.121a45.439,45.439,0,1,1-45.438-45.441A45.437,45.437,0,0,1,285.363,259.121Zm0,0" transform="translate(-51.049 -56.457)" fill="#fff"/>
  <path id="Path_3" data-name="Path 3" d="M143.825,87.081,149.91,108.3a109.2,109.2,0,0,0-27.285,22.065L139.109,145.1a86.784,86.784,0,0,1,17.118-14.745l5.756,20.074a67.4,67.4,0,0,1,84.348,0L279.2,35.764l-4.1-4.549C257.538,11.7,231.676.5,204.155.5s-53.378,11.2-70.937,30.714l-4.1,4.549,8.53,29.783a153.487,153.487,0,0,0-79.43,92.192l21.123,6.569a130.066,130.066,0,0,1,64.484-77.226Zm0,0" transform="translate(-15.282 -0.501)" fill="#fff"/>
  <path id="Path_4" data-name="Path 4" d="M449.2,259.294l-1.887-5.831-30.146-7.551c.274-3.745.429-7.519.429-11.322A152.944,152.944,0,0,0,366.1,120.215l-14.67,16.551a130.812,130.812,0,0,1,44.044,97.825c0,1.959-.06,3.912-.15,5.86l-21.247-5.324c.009-.176.014-.36.014-.536a109.468,109.468,0,0,0-24.96-69.522l-17.061,14.073a87.275,87.275,0,0,1,19.734,50.413L331.64,224.5a67.6,67.6,0,0,1-42.257,73.023l82.769,85.851,5.992-1.268c25.686-5.425,48.327-22.206,62.107-46.026s17.044-51.8,8.948-76.782Zm0,0" transform="translate(-75.958 -31.924)" fill="#fff"/>
</svg>
